<?xml version="1.0" encoding="UTF-8"?><svg xmlns="http://www.w3.org/2000/svg" viewBox="0 0 50 50"><defs><style>.e{fill:#0e435b;}.f{stroke:#0e435b;stroke-width:.41px;}.f,.g{fill:none;stroke-miterlimit:10;}.g{stroke:#c23210;stroke-width:.42px;}.h{fill:#c23210;}</style></defs><g id="a"><g><path class="g" d="M34.88,19.16l-3.4-3.4h-1.92v3.76h-4.1v3.78h-4.22v3.42h-2.86l5.84,5.84c.57,.57,1.49,.57,2.06,0l9.98-9.98c.57-.57,.57-1.49,0-2.06l-1.37-1.37Z"/><path class="e" d="M30.7,14.99l-1.94-.03v3.77l-4.11-.02v3.78h-4.21v3.44l-2.91-.03-3.88-3.9c-.54-.56-.54-1.45,0-1.99l10.18-10.16c.54-.54,.99-.76,1.55-.2l.49,.49-5.99,5.99v2.4h-2.11l2.66,3.37,2.68-3.37h-2.01v-1.91l5.61-5.61,3.98,3.98Z"/><polygon class="h" points="29.09 23.7 27.09 23.7 29.77 20.33 32.43 23.7 30.33 23.7 30.33 26.11 24.11 32.32 23.26 31.45 29.09 25.62 29.09 23.7"/></g><line class="f" x1="36.11" y1="34.94" x2="13.81" y2="34.94"/><g><path class="e" d="M14.73,39.49v-2.46h-.8v-.33h1.92v.33h-.8v2.46h-.32Z"/><path class="e" d="M16.23,39.49v-2.79h.32v2.79h-.32Z"/><path class="e" d="M17,38.59l.3-.03c.02,.15,.05,.27,.11,.36,.06,.09,.14,.15,.24,.21,.11,.05,.23,.08,.36,.08,.19,0,.34-.04,.44-.13s.16-.2,.16-.34c0-.08-.02-.15-.06-.22s-.1-.11-.17-.15c-.08-.04-.24-.09-.5-.17-.23-.06-.39-.13-.49-.19-.1-.06-.17-.15-.23-.25s-.08-.21-.08-.34c0-.23,.08-.41,.23-.55,.15-.14,.36-.21,.62-.21,.18,0,.34,.03,.47,.1s.24,.16,.31,.29c.07,.12,.11,.27,.12,.44l-.31,.03c-.02-.18-.07-.32-.17-.4s-.24-.13-.42-.13-.32,.04-.41,.12c-.1,.08-.14,.18-.14,.3,0,.11,.03,.2,.1,.26,.07,.06,.23,.13,.47,.19,.24,.06,.41,.12,.5,.16,.15,.07,.26,.17,.33,.28s.11,.25,.11,.42-.04,.3-.12,.44c-.08,.13-.19,.23-.32,.3-.14,.07-.3,.1-.49,.1-.3,0-.54-.08-.71-.26-.18-.17-.27-.4-.28-.69Z"/><path class="e" d="M19.94,39.49l.93-2.79h.34l.99,2.79h-.37l-.28-.85h-1.02l-.26,.85h-.34Zm.69-1.15h.82l-.25-.77c-.08-.24-.13-.43-.17-.58-.03,.18-.08,.36-.13,.53l-.27,.82Z"/><path class="e" d="M22.35,38.59l.3-.03c.02,.15,.05,.27,.11,.36,.06,.09,.14,.15,.24,.21,.11,.05,.23,.08,.36,.08,.19,0,.34-.04,.44-.13s.16-.2,.16-.34c0-.08-.02-.15-.06-.22s-.1-.11-.17-.15c-.08-.04-.24-.09-.5-.17-.23-.06-.39-.13-.49-.19-.1-.06-.17-.15-.23-.25s-.08-.21-.08-.34c0-.23,.08-.41,.23-.55,.15-.14,.36-.21,.62-.21,.18,0,.34,.03,.47,.1s.24,.16,.31,.29c.07,.12,.11,.27,.12,.44l-.31,.03c-.02-.18-.07-.32-.17-.4s-.24-.13-.42-.13-.32,.04-.41,.12c-.1,.08-.14,.18-.14,.3,0,.11,.03,.2,.1,.26,.07,.06,.23,.13,.47,.19,.24,.06,.41,.12,.5,.16,.15,.07,.26,.17,.33,.28s.11,.25,.11,.42-.04,.3-.12,.44c-.08,.13-.19,.23-.32,.3-.14,.07-.3,.1-.49,.1-.3,0-.54-.08-.71-.26-.18-.17-.27-.4-.28-.69Z"/><path class="e" d="M24.44,39.49l.93-2.79h.34l.99,2.79h-.37l-.28-.85h-1.02l-.26,.85h-.34Zm.69-1.15h.82l-.25-.77c-.08-.24-.13-.43-.17-.58-.03,.18-.08,.36-.13,.53l-.27,.82Z"/><path class="e" d="M26.95,39.49v-2.79h.33l1.27,2.2v-2.2h.31v2.79h-.33l-1.27-2.2v2.2h-.31Z"/><path class="e" d="M29.38,39.49v-2.79h.91c.18,0,.33,.03,.44,.08,.11,.05,.19,.14,.26,.25,.07,.11,.1,.24,.1,.38,0,.13-.03,.24-.09,.35s-.14,.19-.25,.25c.14,.05,.25,.13,.33,.25s.12,.26,.12,.43-.04,.32-.11,.44c-.07,.13-.17,.22-.29,.28s-.29,.09-.5,.09h-.92Zm.32-1.62h.52c.14,0,.23,0,.29-.03,.08-.03,.15-.07,.19-.13,.05-.06,.07-.15,.07-.26,0-.1-.02-.18-.06-.25-.04-.07-.1-.11-.16-.14-.07-.03-.19-.04-.37-.04h-.49v.84Zm0,1.29h.6c.13,0,.23-.01,.29-.03,.09-.03,.16-.09,.21-.16s.07-.17,.07-.29c0-.1-.02-.19-.07-.27-.04-.07-.11-.13-.18-.16-.08-.03-.2-.05-.36-.05h-.56v.96Z"/><path class="e" d="M31.38,39.49l.93-2.79h.34l.99,2.79h-.37l-.28-.85h-1.02l-.26,.85h-.34Zm.69-1.15h.82l-.25-.77c-.08-.24-.13-.43-.17-.58-.03,.18-.08,.36-.13,.53l-.27,.82Z"/><path class="e" d="M33.89,39.49v-2.79h1.07c.22,0,.39,.03,.5,.08,.11,.05,.19,.14,.26,.26,.07,.12,.1,.26,.1,.42,0,.21-.06,.38-.17,.51-.12,.13-.28,.21-.5,.25,.09,.05,.16,.1,.21,.15,.09,.11,.18,.23,.25,.36l.42,.76h-.4l-.32-.58c-.12-.23-.22-.38-.28-.46s-.12-.13-.18-.16-.14-.04-.25-.04h-.37v1.24h-.32Zm.32-1.56h.69c.15,0,.26-.02,.34-.05,.08-.04,.14-.09,.19-.16,.04-.07,.07-.16,.07-.26,0-.14-.04-.25-.13-.33-.09-.08-.22-.12-.39-.12h-.76v.92Z"/></g></g><g id="b"/><g id="c"/><g id="d"/></svg>